<svg class="c-bottomNavBar__navButtonIcon" xmlns="http://www.w3.org/2000/svg" viewBox="0 0 20 20">
<path fill="none" d="M-.14-.14h20v20h-20Z" transform="translate(0.14 0.14)"/>
<path class="svgShape" d="M16.52,3.19v10h-10v-10h10m0-1.67h-10A1.67,1.67,0,0,0,4.86,3.19v10a1.68,1.68,0,0,0,1.66,1.67h10a1.68,1.68,0,0,0,1.67-1.67v-10A1.68,1.68,0,0,0,16.52,1.52ZM9.44,9.58l1.41,1.89,2.07-2.59,2.77,3.48H7.36ZM1.52,4.86V16.52a1.68,1.68,0,0,0,1.67,1.67H14.86V16.52H3.19V4.86Z" transform="translate(0.14 0.14)"/>
</svg>