<svg xmlns="http://www.w3.org/2000/svg" viewBox="0 0 80 21" width="80" height="21" preserveAspectRatio="xMidYMid meet" style="width: 100%; height: 100%; transform: translate3d(0px, 0px, 0px); content-visibility: visible;"><defs><clipPath id="__lottie_element_3"><rect width="80" height="21" x="0" y="0"/></clipPath><clipPath id="__lottie_element_5"><path d="M0,0 L512,0 L512,518 L0,518z"/></clipPath><filter id="__lottie_element_31"><feColorMatrix type="matrix" color-interpolation-filters="sRGB" values="0 0 0 0 0.8392157554626465 0 0 0 0 0.0313725508749485 0 0 0 0 0.07058823853731155 0 0 0 1 0" result="filter_result_0"/></filter><filter id="__lottie_element_34"><feColorMatrix type="matrix" color-interpolation-filters="sRGB" values="0 0 0 0 0.8392157554626465 0 0 0 0 0.0313725508749485 0 0 0 0 0.07058823853731155 0 0 0 1 0" result="filter_result_0"/></filter></defs><g clip-path="url(#__lottie_element_3)"><g transform="matrix(1,0,0,1,-0.4420013427734375,-0.2800006866455078)" opacity="1" style="display: block;"><g opacity="1" transform="matrix(1,0,0,1,7.039999961853027,10.526000022888184)"><path fill="rgb(214,8,18)" fill-opacity="1" d=" M6.5980000495910645,4.440000057220459 C5.9079999923706055,5.281000137329102 5.046999931335449,5.966000080108643 4.073999881744385,6.451000213623047 C3.059000015258789,6.953999996185303 1.940000057220459,7.210000038146973 0.8069999814033508,7.197000026702881 C-1.1490000486373901,7.206999778747559 -3.0329999923706055,6.453999996185303 -4.442999839782715,5.0970001220703125 C-5.111999988555908,4.447000026702881 -5.6479997634887695,3.671999931335449 -6.020999908447266,2.816999912261963 C-6.790999889373779,1.0180000066757202 -6.790999889373779,-1.0190000534057617 -6.020999908447266,-2.818000078201294 C-5.263999938964844,-4.559999942779541 -3.8519999980926514,-5.934000015258789 -2.0899999141693115,-6.642000198364258 C-1.1690000295639038,-7.015999794006348 -0.18299999833106995,-7.204999923706055 0.8109999895095825,-7.197000026702881 C1.944000005722046,-7.210000038146973 3.063999891281128,-6.953999996185303 4.078999996185303,-6.451000213623047 C5.0289998054504395,-5.984000205993652 5.869999885559082,-5.322000026702881 6.548999786376953,-4.508999824523926 C6.548999786376953,-4.508999824523926 4.695000171661377,-2.6019999980926514 4.695000171661377,-2.6019999980926514 C4.263999938964844,-3.2170000076293945 3.697000026702881,-3.7239999771118164 3.0380001068115234,-4.084000110626221 C1.784999966621399,-4.76200008392334 0.2930000126361847,-4.831999778747559 -1.0180000066757202,-4.275000095367432 C-1.5759999752044678,-4.035999774932861 -2.0850000381469727,-3.694999933242798 -2.5179998874664307,-3.2690000534057617 C-2.946000099182129,-2.8459999561309814 -3.2909998893737793,-2.3459999561309814 -3.5329999923706055,-1.7949999570846558 C-3.7829999923706055,-1.2300000190734863 -3.9100000858306885,-0.6179999709129333 -3.9059998989105225,0 C-3.9089999198913574,0.6119999885559082 -3.7820000648498535,1.218000054359436 -3.5329999923706055,1.7769999504089355 C-3.2909998893737793,2.328000068664551 -2.946000099182129,2.828000068664551 -2.5179998874664307,3.250999927520752 C-2.0850000381469727,3.677000045776367 -1.5759999752044678,4.01800012588501 -1.0180000066757202,4.256999969482422 C-0.4410000145435333,4.506999969482422 0.18199999630451202,4.633999824523926 0.8109999895095825,4.630000114440918 C1.6069999933242798,4.645999908447266 2.3910000324249268,4.445000171661377 3.0810000896453857,4.048999786376953 C3.7360000610351562,3.6649999618530273 4.300000190734863,3.1410000324249268 4.729000091552734,2.515000104904175 C4.729000091552734,2.515000104904175 6.5980000495910645,4.440000057220459 6.5980000495910645,4.440000057220459z"/></g><g opacity="1" transform="matrix(1,0,0,1,18.496999740600586,12.45199966430664)"><path fill="rgb(214,8,18)" fill-opacity="1" d=" M4.330999851226807,5.011000156402588 C4.330999851226807,5.011000156402588 1.8309999704360962,5.011000156402588 1.8309999704360962,5.011000156402588 C1.8309999704360962,5.011000156402588 1.8309999704360962,4.4730000495910645 1.8309999704360962,4.4730000495910645 C1.406999945640564,4.767000198364258 0.9319999814033508,4.978000164031982 0.4300000071525574,5.0970001220703125 C-0.06700000166893005,5.2129998207092285 -0.5759999752044678,5.270999908447266 -1.0870000123977661,5.269999980926514 C-1.5360000133514404,5.276000022888184 -1.9809999465942383,5.203000068664551 -2.4040000438690186,5.052999973297119 C-2.7839999198913574,4.916999816894531 -3.132999897003174,4.703999996185303 -3.427999973297119,4.428999900817871 C-3.7160000801086426,4.158999919891357 -3.944000005722046,3.8310000896453857 -4.0960001945495605,3.4670000076293945 C-4.25600004196167,3.0769999027252197 -4.335000038146973,2.6579999923706055 -4.328999996185303,2.2360000610351562 C-4.341000080108643,1.7170000076293945 -4.211999893188477,1.2039999961853027 -3.9560000896453857,0.753000020980835 C-3.7039999961853027,0.3269999921321869 -3.3580000400543213,-0.03400000184774399 -2.943000078201294,-0.30399999022483826 C-2.4839999675750732,-0.6010000109672546 -1.9759999513626099,-0.8149999976158142 -1.4429999589920044,-0.9369999766349792 C-0.8379999995231628,-1.0800000429153442 -0.21799999475479126,-1.1490000486373901 0.40400001406669617,-1.1449999809265137 C0.40400001406669617,-1.1449999809265137 1.843999981880188,-1.1449999809265137 1.843999981880188,-1.1449999809265137 C1.8680000305175781,-1.6729999780654907 1.6579999923706055,-2.184999942779541 1.2710000276565552,-2.5450000762939453 C0.8069999814033508,-2.9200000762939453 0.21899999678134918,-3.1050000190734863 -0.37599998712539673,-3.065000057220459 C-0.7419999837875366,-3.061000108718872 -1.1059999465942383,-2.996999979019165 -1.4509999752044678,-2.874000072479248 C-1.8639999628067017,-2.7200000286102295 -2.242000102996826,-2.484999895095825 -2.561000108718872,-2.180999994277954 C-2.561000108718872,-2.180999994277954 -3.9519999027252197,-3.749000072479248 -3.9519999027252197,-3.749000072479248 C-3.444999933242798,-4.23199987411499 -2.8459999561309814,-4.60699987411499 -2.188999891281128,-4.848999977111816 C-1.5019999742507935,-5.124000072479248 -0.7689999938011169,-5.264999866485596 -0.028999999165534973,-5.264999866485596 C0.6039999723434448,-5.276000022888184 1.2319999933242798,-5.164000034332275 1.8220000267028809,-4.935999870300293 C2.874000072479248,-4.531000137329102 3.691999912261963,-3.680000066757202 4.054999828338623,-2.611999988555908 C4.250999927520752,-1.9359999895095825 4.341000080108643,-1.2339999675750732 4.322000026702881,-0.531000018119812 C4.322000026702881,-0.531000018119812 4.330999851226807,5.011000156402588 4.330999851226807,5.011000156402588z M1.8309999704360962,2.510999917984009 C1.8309999704360962,2.510999917984009 1.8309999704360962,0.6579999923706055 1.8309999704360962,0.6579999923706055 C1.8309999704360962,0.6579999923706055 0.6890000104904175,0.6579999923706055 0.6890000104904175,0.6579999923706055 C0.3610000014305115,0.6570000052452087 0.03400000184774399,0.6800000071525574 -0.28999999165534973,0.7279999852180481 C-0.5669999718666077,0.7649999856948853 -0.8370000123977661,0.843999981880188 -1.090000033378601,0.9620000123977661 C-1.2999999523162842,1.059999942779541 -1.4850000143051147,1.2050000429153442 -1.628000020980835,1.3869999647140503 C-1.7630000114440918,1.5670000314712524 -1.8320000171661377,1.7860000133514404 -1.8270000219345093,2.010999917984009 C-1.8339999914169312,2.3429999351501465 -1.684000015258789,2.6589999198913574 -1.4210000038146973,2.8610000610351562 C-1.121000051498413,3.0899999141693115 -0.7490000128746033,3.2070000171661377 -0.3720000088214874,3.190999984741211 C0.0010000000474974513,3.190000057220459 0.37299999594688416,3.131999969482422 0.7289999723434448,3.0179998874664307 C1.1150000095367432,2.8929998874664307 1.4850000143051147,2.7239999771118164 1.8329999446868896,2.5139999389648438 C1.8329999446868896,2.5139999389648438 1.8309999704360962,2.510999917984009 1.8309999704360962,2.510999917984009z"/></g><g opacity="1" transform="matrix(1,0,0,1,32.17399978637695,12.312000274658203)"><path fill="rgb(214,8,18)" fill-opacity="1" d=" M7.421999931335449,5.1519999504089355 C7.421999931335449,5.1519999504089355 4.921999931335449,5.1519999504089355 4.921999931335449,5.1519999504089355 C4.921999931335449,5.1519999504089355 4.921999931335449,-0.8309999704360962 4.921999931335449,-0.8309999704360962 C4.9629998207092285,-1.409999966621399 4.78000020980835,-1.9819999933242798 4.410999774932861,-2.430000066757202 C4.091000080108643,-2.7850000858306885 3.631999969482422,-2.984999895095825 3.1540000438690186,-2.9769999980926514 C2.7920000553131104,-2.9749999046325684 2.433000087738037,-2.9089999198913574 2.0940001010894775,-2.7829999923706055 C1.7209999561309814,-2.6519999504089355 1.3739999532699585,-2.4539999961853027 1.0720000267028809,-2.197000026702881 C1.180999994277954,-1.7489999532699585 1.2350000143051147,-1.2879999876022339 1.2289999723434448,-0.8270000219345093 C1.2289999723434448,-0.8270000219345093 1.2289999723434448,5.156000137329102 1.2289999723434448,5.156000137329102 C1.2289999723434448,5.156000137329102 -1.2710000276565552,5.156000137329102 -1.2710000276565552,5.156000137329102 C-1.2710000276565552,5.156000137329102 -1.2710000276565552,-0.8270000219345093 -1.2710000276565552,-0.8270000219345093 C-1.2300000190734863,-1.406000018119812 -1.4140000343322754,-1.9780000448226929 -1.7829999923706055,-2.4260001182556152 C-2.0980000495910645,-2.7790000438690186 -2.549999952316284,-2.9790000915527344 -3.0230000019073486,-2.9730000495910645 C-3.36899995803833,-2.9800000190734863 -3.7119998931884766,-2.9119999408721924 -4.0289998054504395,-2.7730000019073486 C-4.360000133514404,-2.609999895095825 -4.663000106811523,-2.3959999084472656 -4.927999973297119,-2.1389999389648438 C-4.927999973297119,-2.1389999389648438 -4.927999973297119,5.160999774932861 -4.927999973297119,5.160999774932861 C-4.927999973297119,5.160999774932861 -7.427999973297119,5.160999774932861 -7.427999973297119,5.160999774932861 C-7.427999973297119,5.160999774932861 -7.427999973297119,-4.869999885559082 -7.427999973297119,-4.869999885559082 C-7.427999973297119,-4.869999885559082 -4.927999973297119,-4.869999885559082 -4.927999973297119,-4.869999885559082 C-4.927999973297119,-4.869999885559082 -4.927999973297119,-4.124000072479248 -4.927999973297119,-4.124000072479248 C-4.60699987411499,-4.429999828338623 -4.236000061035156,-4.677000045776367 -3.8289999961853027,-4.8520002365112305 C-3.421999931335449,-5.0329999923706055 -2.9809999465942383,-5.129000186920166 -2.5350000858306885,-5.130000114440918 C-2.0280001163482666,-5.125 -1.527999997138977,-5.013000011444092 -1.0679999589920044,-4.801000118255615 C-0.5740000009536743,-4.578999996185303 -0.13300000131130219,-4.252999782562256 0.22499999403953552,-3.8459999561309814 C1.121999979019165,-4.698999881744385 2.322000026702881,-5.160999774932861 3.559000015258789,-5.130000114440918 C4.063000202178955,-5.132999897003174 4.563000202178955,-5.052999973297119 5.041999816894531,-4.894999980926514 C5.501999855041504,-4.74399995803833 5.921000003814697,-4.489999771118164 6.265999794006348,-4.150000095367432 C6.631999969482422,-3.7799999713897705 6.916999816894531,-3.3369998931884766 7.099999904632568,-2.8499999046325684 C7.322999954223633,-2.242000102996826 7.428999900817871,-1.5959999561309814 7.413000106811523,-0.9490000009536743 C7.413000106811523,-0.9490000009536743 7.421999931335449,5.1519999504089355 7.421999931335449,5.1519999504089355z"/></g><g opacity="1" transform="matrix(1,0,0,1,46.42900085449219,12.454999923706055)"><path fill="rgb(214,8,18)" fill-opacity="1" d=" M5.4079999923706055,-0.019999999552965164 C5.4079999923706055,0.25999999046325684 5.353000164031982,1.0199999809265137 5.353000164031982,1.0199999809265137 C5.353000164031982,1.0199999809265137 -2.690999984741211,1.0199999809265137 -2.690999984741211,1.0199999809265137 C-2.5980000495910645,1.3109999895095825 -2.4670000076293945,1.5880000591278076 -2.3010001182556152,1.843999981880188 C-2.134999990463257,2.1019999980926514 -1.9270000457763672,2.3310000896453857 -1.6859999895095825,2.5199999809265137 C-1.437999963760376,2.7139999866485596 -1.159999966621399,2.865999937057495 -0.8629999756813049,2.9709999561309814 C-0.5370000004768372,3.0840001106262207 -0.19300000369548798,3.140000104904175 0.15199999511241913,3.135999917984009 C0.6129999756813049,3.134000062942505 1.0709999799728394,3.055000066757202 1.5049999952316284,2.9019999504089355 C1.9190000295639038,2.7669999599456787 2.3010001182556152,2.552000045776367 2.631999969482422,2.2690000534057617 C2.631999969482422,2.2690000534057617 4.131999969482422,3.9070000648498535 4.131999969482422,3.9070000648498535 C3.5450000762939453,4.364999771118164 2.881999969482422,4.7170000076293945 2.1740000247955322,4.947999954223633 C1.4930000305175781,5.164000034332275 0.7829999923706055,5.2729997634887695 0.06800000369548798,5.269000053405762 C-1.3539999723434448,5.2769999504089355 -2.7230000495910645,4.7220001220703125 -3.73799991607666,3.7260000705718994 C-4.2210001945495605,3.246999979019165 -4.60699987411499,2.678999900817871 -4.874000072479248,2.052999973297119 C-5.428999900817871,0.7390000224113464 -5.428999900817871,-0.7419999837875366 -4.874000072479248,-2.055999994277954 C-4.605999946594238,-2.683000087738037 -4.2179999351501465,-3.252000093460083 -3.7300000190734863,-3.7290000915527344 C-3.23799991607666,-4.206999778747559 -2.6630001068115234,-4.589000225067139 -2.0309998989105225,-4.855999946594238 C-1.3730000257492065,-5.136000156402588 -0.6639999747276306,-5.2769999504089355 0.050999999046325684,-5.271999835968018 C0.7459999918937683,-5.27400016784668 1.434000015258789,-5.140999794006348 2.0789999961853027,-4.881999969482422 C2.7130000591278076,-4.630000114440918 3.2960000038146973,-4.26200008392334 3.796999931335449,-3.7980000972747803 C4.843999862670898,-2.822000026702881 5.429999828338623,-1.4490000009536743 5.409999847412109,-0.017999999225139618 C5.409999847412109,-0.017999999225139618 5.4079999923706055,-0.019999999552965164 5.4079999923706055,-0.019999999552965164z M2.7880001068115234,-0.9909999966621399 C2.609999895095825,-1.6009999513626099 2.243000030517578,-2.138000011444092 1.7400000095367432,-2.5260000228881836 C1.253000020980835,-2.9079999923706055 0.6510000228881836,-3.11299991607666 0.03200000151991844,-3.1070001125335693 C-0.5789999961853027,-3.111999988555908 -1.1720000505447388,-2.9070000648498535 -1.649999976158142,-2.5260000228881836 C-2.1489999294281006,-2.135999917984009 -2.5139999389648438,-1.5989999771118164 -2.690999984741211,-0.9909999966621399 C-2.690999984741211,-0.9909999966621399 2.7880001068115234,-0.9909999966621399 2.7880001068115234,-0.9909999966621399z"/></g><g opacity="1" transform="matrix(1,0,0,1,55.54899978637695,10.461000442504883)"><path fill="rgb(214,8,18)" fill-opacity="1" d=" M2.1610000133514404,6.940999984741211 C1.9179999828338623,7.041999816894531 1.6679999828338623,7.120999813079834 1.4110000133514404,7.176000118255615 C1.1579999923706055,7.234000205993652 0.8989999890327454,7.26200008392334 0.6389999985694885,7.26200008392334 C0.27900001406669617,7.263000011444092 -0.08100000023841858,7.214000225067139 -0.42800000309944153,7.114999771118164 C-0.7570000290870667,7.0229997634887695 -1.0609999895095825,6.861000061035156 -1.3200000524520874,6.638999938964844 C-1.5859999656677246,6.4039998054504395 -1.7949999570846558,6.110000133514404 -1.9279999732971191,5.781000137329102 C-2.0880000591278076,5.375999927520752 -2.1630001068115234,4.941999912261963 -2.1519999504089355,4.506999969482422 C-2.1519999504089355,4.506999969482422 -2.1519999504089355,-7.263999938964844 -2.1519999504089355,-7.263999938964844 C-2.1519999504089355,-7.263999938964844 0.3959999978542328,-7.263999938964844 0.3959999978542328,-7.263999938964844 C0.3959999978542328,-7.263999938964844 0.3959999978542328,4.072000026702881 0.3959999978542328,4.072000026702881 C0.3610000014305115,4.380000114440918 0.4519999921321869,4.690000057220459 0.6480000019073486,4.929999828338623 C0.8090000152587891,5.084000110626221 1.0260000228881836,5.169000148773193 1.2489999532699585,5.164999961853027 C1.5729999542236328,5.159999847412109 1.8880000114440918,5.065999984741211 2.1630001068115234,4.894999980926514 C2.1630001068115234,4.894999980926514 2.1610000133514404,6.940999984741211 2.1610000133514404,6.940999984741211z"/></g></g><g clip-path="url(#__lottie_element_5)" transform="matrix(0.05000000074505806,0,0,0.05000000074505806,56.95000076293945,-2.4499998092651367)" opacity="1" style="display: block;"><g filter="url(#__lottie_element_34)" transform="matrix(1,0,0,1,0,0)" opacity="1" style="display: block;"><g opacity="1" transform="matrix(1,0,0,1,145.66099548339844,343.48699951171875)"><path fill="rgb(214,8,18)" fill-opacity="1" d=" M7.238999843597412,-115.76699829101562 C-12.093999862670898,-109.76699829101562 -13.154999732971191,-59.36600112915039 -14.706999778747559,-46.38399887084961 C-20.76799964904785,-26.832000732421875 -33.020999908447266,-9.779999732971191 -49.61800003051758,2.200000047683716 C-54.71900177001953,9.027000427246094 -50.23899841308594,19.190000534057617 -62.92300033569336,45.47100067138672 C-72.80799865722656,66.81900024414062 -89.61399841308594,112.64299774169922 -89.81700134277344,113.3280029296875 C-90.8280029296875,116.74600219726562 -90.64099884033203,117.72799682617188 -86.66500091552734,117.94999694824219 C-85.21299743652344,118.03099822998047 -68.78600311279297,118.38800048828125 -66.81999969482422,117.33000183105469 C-64.41100311279297,115.32599639892578 -65.77999877929688,108.33399963378906 -66.16000366210938,106.11900329589844 C-66.43499755859375,103.76100158691406 -66.43499755859375,101.37899780273438 -66.16000366210938,99.0199966430664 C-62.73400115966797,74.677001953125 -52.66899871826172,51.74800109863281 -37.06800079345703,32.74800109863281 C0.19099999964237213,-16.378999710083008 21.38800048828125,-29.31599998474121 39.50400161743164,-32.53499984741211 C44.96500015258789,-33.417999267578125 84.86499786376953,-42.87099838256836 88.76599884033203,-53.599998474121094 C99.08899688720703,-81.98699951171875 20.461999893188477,-119.87000274658203 7.238999843597412,-115.76699829101562z"/></g></g><g filter="url(#__lottie_element_31)" transform="matrix(1,0,0,1,0,0)" opacity="1" style="display: block;"><g opacity="1" transform="matrix(1,0,0,1,219.52000427246094,347.66400146484375)"><path fill="rgb(214,8,18)" fill-opacity="1" d=" M24.700000762939453,-95.85199737548828 C14.003999710083008,-124.38800048828125 -20.618999481201172,-114.46199798583984 -27.582000732421875,-97.572998046875 C-27.582000732421875,-97.572998046875 -39.590999603271484,-71.94100189208984 -21.06399917602539,-64.23999786376953 C-15.956000328063965,-62.117000579833984 -14.24899959564209,-51.202999114990234 -17.849000930786133,-38.22600173950195 C-17.849000930786133,-38.22600173950195 -24.676000595092773,-24.64900016784668 -24.676000595092773,-24.64900016784668 C-28.635000228881836,-14.208000183105469 -35.2869987487793,-5.000999927520752 -43.95500183105469,2.0390000343322754 C-49.77299880981445,6.151000022888184 -44.65299987792969,11.736000061035156 -41.68600082397461,15.616000175476074 C-37.39899826049805,21.43400001525879 -33.191001892089844,27.25200080871582 -28.885000228881836,33.07099914550781 C-19.42099952697754,45.79399871826172 -9.994000434875488,58.57600021362305 -1.402999997138977,71.86100006103516 C7.460000038146973,85.61299896240234 14.616999626159668,97.71399688720703 22.259000778198242,112.125 C22.832000732421875,113.2040023803711 23.966999053955078,113.86499786376953 25.187000274658203,113.83200073242188 C28.309999465942383,113.83200073242188 36.20399856567383,113.9489974975586 43.12799835205078,113.83200073242188 C50.38199996948242,113.63800048828125 44.05799865722656,107.23799896240234 44.05799865722656,107.23799896240234 C37.30799865722656,99.34300231933594 31.702999114990234,92.78900146484375 25.458999633789062,84.48699951171875 C15.916000366210938,71.4540023803711 6.781000137329102,57.819000244140625 -1.5980000495910645,44.183998107910156 C-7.961999893188477,35.803001403808594 -12.536999702453613,26.204999923706055 -15.038999557495117,15.984000205993652 C-14.359000205993652,1.0549999475479126 -8.829999923706055,-13.244000434875488 0.7099999785423279,-24.746000289916992 C1.0779999494552612,-25.327999114990234 7.763999938964844,-34.73099899291992 9.107999801635742,-38.20600128173828 C25.56599998474121,-80.77400207519531 30.124000549316406,-81.38400268554688 24.700000762939453,-95.85199737548828z"/></g></g><g transform="matrix(1,0,0,1,282.114013671875,272.37298583984375)" opacity="1" style="display: block;"><g opacity="1" transform="matrix(1,0,0,1,64.96800231933594,52.66699981689453)"><path fill="rgb(213,7,18)" fill-opacity="1" d=" M64.55599975585938,23.266000747680664 C51.56999969482422,7.734000205993652 38.23400115966797,-8.666000366210938 21.485000610351562,-20.038999557495117 C12.668000221252441,-32.54100036621094 17.53499984741211,-54.862998962402344 5.486000061035156,-59.303001403808594 C-2.625999927520752,-62.292999267578125 -25.554000854492188,-53.805999755859375 -31.73699951171875,-48.43199920654297 C-37.88199996948242,-43.090999603271484 -41.06999969482422,-34.87699890136719 -29.959999084472656,-23.988000869750977 C-22.75200080871582,-16.923999786376953 -9.810999870300293,-17.172000885009766 -5.166999816894531,-13.87600040435791 C-3.2269999980926514,-12.538000106811523 -1.2869999408721924,-11.121999740600586 0.6520000100135803,-9.64799976348877 C6.46999979019165,-5.090000152587891 10.835000038146973,-1.8899999856948853 16.517000198364258,2.744999885559082 C22.200000762939453,7.38100004196167 29.297000885009766,12.463000297546387 35.310001373291016,17.3700008392334 C35.310001373291016,17.3700008392334 35.31100082397461,17.3700008392334 35.31100082397461,17.3700008392334 C37.56100082397461,19.19300079345703 44.71699905395508,24.177000045776367 38.801998138427734,26.05900001525879 C34.834999084472656,27.26799964904785 30.76300048828125,28.104999542236328 26.641000747680664,28.56100082397461 C17.156999588012695,29.743999481201172 -13.159000396728516,31.371999740600586 -22.70199966430664,31.85700035095215 C-22.70199966430664,31.85700035095215 -33.077999114990234,32.14899826049805 -33.077999114990234,32.14899826049805 C-38.54800033569336,32.49700164794922 -44.03900146484375,32.2239990234375 -49.446998596191406,31.333999633789062 C-51.111000061035156,30.864999771118164 -52.84000015258789,30.667999267578125 -54.56700134277344,30.75200080871582 C-58.25199890136719,31.23699951171875 -58.9109992980957,35.077999114990234 -60.05500030517578,37.909000396728516 C-61.316001892089844,41.06999969482422 -63.547000885009766,46.38399887084961 -64.7300033569336,49.54600143432617 C-66.78700256347656,55.09299850463867 -54.8390007019043,51.6609992980957 -52.68600082397461,51.15599822998047 C-44.85599899291992,49.12300109863281 -36.869998931884766,47.74800109863281 -28.81100082397461,47.04399871826172 C-23.729000091552734,46.67499923706055 -20.451000213623047,46.5 -17.795000076293945,46.38399887084961 C-17.795000076293945,46.38399887084961 1.6380000114440918,45.56999969482422 1.6380000114440918,45.56999969482422 C5.923999786376953,45.31800079345703 10.229999542236328,45.12300109863281 14.517000198364258,44.83300018310547 C23.94700050354004,44.25699996948242 33.3390007019043,43.18899917602539 42.659000396728516,41.632999420166016 C53.52000045776367,39.694000244140625 67.56199645996094,33.50600051879883 64.55599975585938,23.266000747680664z"/></g></g><g transform="matrix(1,0,0,1,290.1000061035156,244.3470001220703)" opacity="1" style="display: block;"><g opacity="1" transform="matrix(1,0,0,1,44.10200119018555,108.48200225830078)"><path fill="rgb(213,7,18)" fill-opacity="1" d=" M-17.302000045776367,-106.88700103759766 C-25.9689998626709,-111.10900115966797 -40.2760009765625,-106.27799987792969 -43.09600067138672,-100.24600219726562 C-45.99399948120117,-94.0479965209961 -41.95500183105469,-79.50599670410156 -39.525001525878906,-73.10900115966797 C-33.80099868774414,-58.04899978637695 -25.267000198364258,-37.7400016784668 -23.999000549316406,-35.06999969482422 C-19.698999404907227,-25.89299964904785 -16.163000106811523,-16.37700080871582 -13.428999900817871,-6.618000030517578 C-13.428999900817871,-6.618000030517578 -4.914999961853027,18.59600067138672 -4.914999961853027,18.59600067138672 C-4.914999961853027,18.59600067138672 -3.114000082015991,23.923999786376953 -3.114000082015991,23.923999786376953 C-3.114000082015991,23.923999786376953 12.074000358581543,68.86799621582031 12.074000358581543,68.86799621582031 C15.545000076293945,79.1259994506836 17.506000518798828,89.83499908447266 17.892000198364258,100.65699768066406 C18.06599998474121,106.8239974975586 16.72800064086914,108.14399719238281 23.711000442504883,108.41500091552734 C29.47800064086914,108.56999969482422 35.23699951171875,108.45999908447266 40.99100112915039,108.08499908447266 C41.65999984741211,108.10299682617188 42.32400131225586,107.96299743652344 42.93000030517578,107.6780014038086 C46.808998107910156,105.4280014038086 39.92399978637695,97.2239990234375 38.58599853515625,95.11000061035156 C32.92599868774414,85.8759994506836 28.73200035095215,75.81999969482422 26.15399932861328,65.30000305175781 C26.15399932861328,65.30000305175781 18.726999282836914,34.97800064086914 18.726999282836914,34.97800064086914 C18.726999282836914,34.97800064086914 13.784000396728516,14.793999671936035 13.784000396728516,14.793999671936035 C13.784000396728516,14.793999671936035 9.78600025177002,-1.5269999504089355 9.78600025177002,-1.5269999504089355 C9.78600025177002,-1.5269999504089355 -0.04500000178813934,-41.66400146484375 -0.04500000178813934,-41.66400146484375 C-2.930999994277954,-51.922000885009766 -5.859000205993652,-70.19400024414062 -7.333000183105469,-79.78399658203125 C-8.430999755859375,-86.91899871826172 -10.753999710083008,-102.6520004272461 -17.302000045776367,-106.88700103759766z"/></g></g><g transform="matrix(1,0,0,1,130.0889892578125,55.920989990234375)" opacity="1" style="display: block;"><g opacity="1" transform="matrix(1,0,0,1,163.29400634765625,130.45700073242188)"><path fill="rgb(213,7,18)" fill-opacity="1" d=" M152.7209930419922,-112.2979965209961 C148.14599609375,-116.58000183105469 142.5500030517578,-119.61799621582031 136.46800231933594,-121.12200164794922 C130.20399475097656,-122.4020004272461 126.36299896240234,-118.36799621582031 119.98300170898438,-119.18299865722656 C115.38600158691406,-119.78399658203125 106.63899993896484,-121.68499755859375 102.15899658203125,-122.8479995727539 C95.93800354003906,-124.48699951171875 89.822998046875,-126.50800323486328 83.8499984741211,-128.89999389648438 C76.6240005493164,-131.07699584960938 68.9020004272461,-130.968994140625 61.7400016784668,-128.58900451660156 C60.87300109863281,-128.28500366210938 59.957000732421875,-128.18099975585938 59.0629997253418,-127.96900177001953 C56.349998474121094,-127.32499694824219 53.63999938964844,-125.4540023803711 51.763999938964844,-123.88300323486328 C49.821998596191406,-122.25800323486328 46.15599822998047,-117.7969970703125 45.40999984741211,-113.77300262451172 C45.17900085449219,-112.53399658203125 44.895999908447266,-111.30699920654297 44.28499984741211,-110.2040023803711 C42.28799819946289,-102.4520034790039 42.50299835205078,-94.29499816894531 44.904998779296875,-86.65899658203125 C51.770999908447266,-54.909000396728516 63.69900131225586,-24.36199951171875 70.11900329589844,7.485000133514404 C71.76699829101562,15.592000007629395 72.93099975585938,24.493999481201172 65.52200317382812,30.177000045776367 C58.827999114990234,34.17499923706055 50.444000244140625,34.02399826049805 43.895999908447266,29.788999557495117 C23.56599998474121,15.755000114440918 6.040999889373779,-1.9600000381469727 -7.771999835968018,-22.44099998474121 C-16.496000289916992,-35.194000244140625 -26.594999313354492,-46.946998596191406 -37.891998291015625,-57.487998962402344 C-49.28099822998047,-64.64900207519531 -63.88600158691406,-64.13500213623047 -74.74299621582031,-56.18899917602539 C-82.20600128173828,-50.84199905395508 -88.83899688720703,-44.42499923706055 -94.42900085449219,-37.143001556396484 C-94.42900085449219,-37.143001556396484 -125.927001953125,-0.04100000113248825 -125.927001953125,-0.04100000113248825 C-136.9010009765625,11.227999687194824 -147.02699279785156,23.29199981689453 -156.22300720214844,36.053001403808594 C-159.33099365234375,41.22999954223633 -161.35800170898438,46.98400115966797 -162.177001953125,52.965999603271484 C-163.31700134277344,59.119998931884766 -163.2469940185547,60.74399948120117 -163.28900146484375,63.34199905395508 C-163.32200622558594,65.4219970703125 -163.2050018310547,66.00900268554688 -162.7969970703125,71.66300201416016 C-162.00399780273438,77.38500213623047 -160.20399475097656,96.82499694824219 -162.4459991455078,110.48999786376953 C-165.2779998779297,127.75399780273438 -147.26800537109375,131.86599731445312 -137.156005859375,130.06900024414062 C-134.36599731445312,129.61900329589844 -128.0050048828125,128.8719940185547 -111.66000366210938,125.29900360107422 C-104.0780029296875,123.64199829101562 -94.41799926757812,123.12100219726562 -91.71199798583984,123.05899810791016 C-91.71199798583984,123.05899810791016 -78.33499908447266,123.0790023803711 -64.75499725341797,123.0790023803711 C-64.75499725341797,123.0790023803711 -60.742000579833984,123.0790023803711 -60.742000579833984,123.0790023803711 C-36.59400177001953,123.0790023803711 16.871000289916992,124.34100341796875 41.016998291015625,124.78700256347656 C49.683998107910156,124.78700256347656 63.349998474121094,124.28600311279297 73.43299865722656,121.3740005493164 C74.927001953125,120.86900329589844 76.4010009765625,120.38500213623047 77.83499908447266,119.7249984741211 C100.60099792480469,107.10800170898438 115.26000213623047,83.65299987792969 116.625,57.6609992980957 C116.93599700927734,54.790000915527344 117.13700103759766,51.91299819946289 117.22699737548828,49.029998779296875 C117.19400024414062,31.454999923706055 114.69999694824219,13.972000122070312 109.81800079345703,-2.9100000858306885 C109.81800079345703,-2.9100000858306885 95.3489990234375,-59.58300018310547 95.3489990234375,-59.58300018310547 C93.54399871826172,-64.30899810791016 93.89800262451172,-69.58899688720703 96.31900024414062,-74.03199768066406 C100.03900146484375,-78.30500030517578 104.38700103759766,-81.98600006103516 109.21600341796875,-84.95099639892578 C112.18000030517578,-87.47699737548828 116.15799713134766,-88.46800231933594 119.96099853515625,-87.62799835205078 C123.14199829101562,-86.75399780273438 124.63600158691406,-83.94200134277344 126.57499694824219,-81.63400268554688 C128.88900756835938,-79.10800170898438 131.88800048828125,-77.30899810791016 135.20599365234375,-76.45600128173828 C136.99400329589844,-75.70600128173828 138.99600219726562,-75.63700103759766 140.8300018310547,-76.26200103759766 C145.63999938964844,-78.53099822998047 141.33399963378906,-83.53500366210938 140.8300018310547,-86.5989990234375 C140.36500549316406,-88.98400115966797 144.5540008544922,-87.49099731445312 145.73699951171875,-87.33599853515625 C152.00799560546875,-85.98200225830078 158.49099731445312,-88.44300079345703 162.28199768066406,-93.62000274658203 C166.1219940185547,-101.5719985961914 158.19000244140625,-107.83699798583984 152.7209930419922,-112.2979965209961z"/></g></g><g transform="matrix(1,0,0,1,110.43499755859375,232.38699340820312)" opacity="1" style="display: block;"><g opacity="1" transform="matrix(1,0,0,1,16.381000518798828,13.024999618530273)"><path fill="rgb(213,7,18)" fill-opacity="1" d=" M15.194999694824219,-13.024999618530273 C8.25100040435791,-10.890999794006348 6.980999946594238,-7.953999996185303 4.389999866485596,-6.067999839782715 C-1.3179999589920044,-2.825000047683716 -7.951000213623047,-1.5950000286102295 -14.442999839782715,-2.5769999027252197 C-15.229999542236328,-2.822999954223633 -16.06800079345703,-2.384000062942505 -16.31399917602539,-1.597000002861023 C-16.356000900268555,-1.4620000123977661 -16.378999710083008,-1.3220000267028809 -16.381999969482422,-1.180999994277954 C-16.381999969482422,3.377000093460083 -13.996000289916992,15.343999862670898 3.7699999809265137,12.628999710083008 C10.61400032043457,11.876999855041504 16.381000518798828,10.01200008392334 16.381000518798828,10.01200008392334 C16.381000518798828,10.01200008392334 15.194999694824219,-13.024999618530273 15.194999694824219,-13.024999618530273z"/></g></g><g transform="matrix(1,0,0,1,330.8809814453125,57.47900390625)" opacity="1" style="display: block;"><g opacity="1" transform="matrix(1,0,0,1,14.873000144958496,11.786999702453613)"><path fill="rgb(213,7,18)" fill-opacity="1" d=" M6.691999912261963,-10.857000350952148 C5.880000114440918,-10.838000297546387 5.066999912261963,-10.904000282287598 4.267000198364258,-11.050999641418457 C-0.5820000171661377,-11.805000305175781 -5.502999782562256,-11.980999946594238 -10.395000457763672,-11.574999809265137 C-12.081000328063965,-11.420000076293945 -14.039999961853027,-10.973999977111816 -14.680999755859375,-9.442000389099121 C-14.982999801635742,-8.491999626159668 -14.927000045776367,-7.464000225067139 -14.526000022888184,-6.552000045776367 C-13.48799991607666,-3.696000099182129 -11.633000373840332,-1.2079999446868896 -9.192000389099121,0.6039999723434448 C-7.563000202178955,1.8849999904632568 -7.038000106811523,1.4769999980926514 -6.960999965667725,3.3389999866485596 C-6.986999988555908,3.5769999027252197 -6.686999797821045,14.675999641418457 1.6460000276565552,11.0649995803833 C3.374000072479248,10.315999984741211 7.553999900817871,6.85699987411499 10.312999725341797,3.065000057220459 C13.59000015258789,-1.440999984741211 14.715999603271484,-6.448999881744385 14.868000030517578,-8.741000175476074 C15.09000015258789,-12.10200023651123 6.8460001945495605,-10.875 6.691999912261963,-10.857000350952148z"/></g></g><g transform="matrix(1,0,0,1,256,259)" opacity="1" style="display: block;"/><g transform="matrix(1,0,0,1,0,0)" opacity="1" style="display: block;"><g opacity="1" transform="matrix(1,0,0,1,373.2330017089844,78.4729995727539)"><path fill="rgb(255,255,255)" fill-opacity="1" d=" M5.125,1.1929999589920044 C5.125,1.1929999589920044 1.3619999885559082,5.072000026702881 1.3619999885559082,5.072000026702881 C0.621999979019165,5.75 -0.5149999856948853,5.75 -1.25600004196167,5.072000026702881 C-1.25600004196167,5.072000026702881 -5.135000228881836,1.3669999837875366 -5.135000228881836,1.3669999837875366 C-5.8420000076293945,0.6650000214576721 -5.8470001220703125,-0.47600001096725464 -5.144999980926514,-1.1829999685287476 C-5.140999794006348,-1.1859999895095825 -5.138999938964844,-1.190000057220459 -5.135000228881836,-1.1929999589920044 C-5.135000228881836,-1.1929999589920044 -1.3530000448226929,-5.072000026702881 -1.3530000448226929,-5.072000026702881 C-0.6119999885559082,-5.75 0.5239999890327454,-5.75 1.2660000324249268,-5.072000026702881 C1.2660000324249268,-5.072000026702881 5.144999980926514,-1.3669999837875366 5.144999980926514,-1.3669999837875366 C5.8460001945495605,-0.6589999794960022 5.841000080108643,0.4830000102519989 5.132999897003174,1.184000015258789 C5.130000114440918,1.187000036239624 5.126999855041504,1.190000057220459 5.123000144958496,1.1929999589920044 C5.123000144958496,1.1929999589920044 5.125,1.1929999589920044 5.125,1.1929999589920044z"/></g></g></g></g></svg>