<svg width="85" height="21" viewBox="0 0 85 21" fill="none" xmlns="http://www.w3.org/2000/svg">
<path d="M10.441 15.2741C10.1621 15.8217 9.72876 16.2754 9.19463 16.579C8.62566 16.9112 7.97685 17.0819 7.3181 17.0726C6.83415 17.087 6.3525 17.0005 5.9038 16.8185C5.45509 16.6366 5.04916 16.3632 4.71181 16.0158C4.03778 15.298 3.66255 14.3503 3.66255 13.3655C3.66255 12.3807 4.03778 11.4329 4.71181 10.7152C5.04984 10.3666 5.45684 10.0923 5.9068 9.90997C6.35676 9.72759 6.83979 9.64111 7.32505 9.65604C7.98199 9.64319 8.62998 9.80986 9.19926 10.1381C9.7218 10.4401 10.1378 10.8968 10.39 11.4453L10.5707 11.8254L13.6705 10.0292L13.506 9.70239C12.9451 8.60729 12.0772 7.69957 11.0086 7.09036C9.89525 6.4465 8.6295 6.11352 7.34358 6.1262C5.28171 6.1262 3.53492 6.82151 2.15417 8.21212C1.12591 9.22875 0.424888 10.5297 0.141094 11.9478C-0.142699 13.3659 0.00369651 14.8366 0.561492 16.1709C1.11929 17.5052 2.06301 18.6422 3.27149 19.436C4.47997 20.2298 5.89802 20.644 7.34358 20.6256C8.6295 20.6383 9.89525 20.3053 11.0086 19.6615C12.0889 19.0414 12.9722 18.1288 13.557 17.0286L13.7354 16.6972L10.631 14.9265L10.441 15.2741Z" fill="white"/>
<path d="M26.0901 7.66048C25.0174 6.63606 23.6182 6.1169 21.92 6.1169C21.0073 6.10785 20.1028 6.29024 19.2649 6.6523C18.4269 7.01437 17.6741 7.54809 17.055 8.21904C15.7623 9.61814 15.0444 11.4533 15.0444 13.3585C15.0444 15.2637 15.7623 17.0989 17.055 18.498C17.672 19.1725 18.4241 19.7095 19.2623 20.0741C20.1006 20.4386 21.0061 20.6226 21.92 20.614C23.6228 20.614 25.0221 20.0902 26.0901 19.0542V20.2756H29.6833V6.45528H26.0901V7.66048ZM25.029 10.6503C25.7114 11.3897 26.0903 12.3591 26.0903 13.3655C26.0903 14.3718 25.7114 15.3412 25.029 16.0806C24.3094 16.7678 23.3527 17.1512 22.3579 17.1512C21.363 17.1512 20.4064 16.7678 19.6867 16.0806C19.0044 15.3412 18.6255 14.3718 18.6255 13.3655C18.6255 12.3591 19.0044 11.3897 19.6867 10.6503C20.4064 9.96313 21.363 9.57974 22.3579 9.57974C23.3527 9.57974 24.3094 9.96313 25.029 10.6503V10.6503Z" fill="white"/>
<path d="M47.1238 6.11682C45.4187 6.11682 44.0842 6.70783 43.146 7.87826C42.2772 6.70783 41.0308 6.11682 39.4393 6.11682C38.0747 6.11682 36.9558 6.52706 36.0986 7.33825V6.4552H32.4961V20.2756H36.0893V12.5785C36.0893 11.5541 36.321 10.7777 36.7843 10.2608C37.0128 10.0131 37.2923 9.81795 37.6034 9.68871C37.9146 9.55948 38.25 9.49926 38.5867 9.51223C39.2562 9.51223 39.7451 9.71155 40.1041 10.1218C40.4632 10.532 40.6509 11.1647 40.6509 11.9759V20.2686H44.2418V12.5785C44.2418 11.5333 44.4734 10.7522 44.9136 10.2608C45.1381 10.0141 45.4146 9.8204 45.7231 9.69374C46.0317 9.56707 46.3645 9.51061 46.6975 9.52845C46.9873 9.51102 47.2774 9.55716 47.5475 9.66365C47.8177 9.77015 48.0612 9.93442 48.2613 10.145C48.6458 10.5645 48.8381 11.1833 48.8381 11.9852V20.2779H52.4313V11.7998C52.4313 10.0893 51.9402 8.69872 50.9695 7.67199C49.9988 6.64525 48.7061 6.11682 47.1238 6.11682Z" fill="white"/>
<path d="M64.6541 6.4552H61.0632V20.2756H64.6541V6.4552Z" fill="white"/>
<path d="M62.8587 0.897594C62.5687 0.893077 62.2809 0.948599 62.0134 1.06068C61.7458 1.17275 61.5044 1.33896 61.3042 1.54886C61.1016 1.74984 60.9413 1.98932 60.8327 2.25322C60.7241 2.51712 60.6693 2.8001 60.6717 3.08549C60.6717 3.66575 60.9021 4.22225 61.3122 4.63256C61.7224 5.04287 62.2786 5.27338 62.8587 5.27338C63.4387 5.27338 63.9949 5.04287 64.4051 4.63256C64.8152 4.22225 65.0456 3.66575 65.0456 3.08549C65.048 2.8001 64.9933 2.51712 64.8846 2.25322C64.776 1.98932 64.6157 1.74984 64.4132 1.54886C64.2129 1.33896 63.9715 1.17275 63.704 1.06068C63.4364 0.948599 63.1487 0.893077 62.8587 0.897594V0.897594Z" fill="white"/>
<path d="M78.6794 7.66967C77.6878 6.6383 76.3742 6.11682 74.7757 6.11682C73.249 6.11682 72.0258 6.55487 71.1223 7.424V6.4552H67.5337V20.2756H71.1269V12.8961C71.1269 11.7372 71.3956 10.8773 71.9285 10.3466C72.2067 10.0716 72.539 9.85756 72.9043 9.71792C73.2696 9.57827 73.66 9.51612 74.0506 9.53541C74.8545 9.53541 75.4638 9.75559 75.9155 10.2052C76.3673 10.6549 76.5827 11.3108 76.5827 12.1753V20.2872H80.176V11.8832C80.176 10.1125 79.6732 8.69641 78.6794 7.66967Z" fill="white"/>
<path d="M54.8545 20.2756H58.4453V0.373657L54.8545 1.09214V20.2756Z" fill="white"/>
</svg>
