<svg class="star -yellow" xmlns="http://www.w3.org/2000/svg" viewBox="0 0 16.47 16.48">
<path fill="#FEE834" fill-rule="evenodd" d="M8.23,16.48h-.01c-.09,0-.18-.04-.24-.1-.07-.06-.11-.14-.12-.23-.82-4.19-3.1-6.79-7.52-7.53-.08,0-.15-.04-.21-.09-.06-.05-.1-.12-.12-.2v-.03H0v-.04s0-.01,0-.02v-.04H0c.01-.09,.05-.17,.12-.22,.06-.06,.14-.09,.22-.1C4.76,7.13,7.04,4.53,7.86,.34c0-.09,.05-.17,.11-.23,.06-.06,.14-.1,.23-.11h.05c.09,0,.18,.04,.24,.1,.07,.06,.11,.14,.12,.23,.82,4.2,3.1,6.8,7.52,7.53,.08,0,.15,.04,.21,.09,.06,.05,.1,.12,.12,.2h0v.03h0v.04s0,.01,0,.02v.04h0s0,.03,0,.04c-.02,.08-.06,.14-.12,.19-.06,.05-.13,.08-.21,.09-4.42,.74-6.7,3.33-7.52,7.53,0,.09-.05,.17-.11,.23-.06,.06-.14,.1-.23,.11h-.04Z"/>
</svg>