<svg xmlns="http://www.w3.org/2000/svg" viewBox="0 0 44 37" width="44" height="37" preserveAspectRatio="xMidYMid meet" style="width: 100%; height: 100%; transform: translate3d(0px, 0px, 0px); content-visibility: visible;"><defs><clipPath id="__lottie_element_38"><rect width="44" height="37" x="0" y="0"/></clipPath><clipPath id="__lottie_element_40"><path d="M0,0 L358,0 L358,301 L0,301z"/></clipPath></defs><g clip-path="url(#__lottie_element_38)"><g clip-path="url(#__lottie_element_40)" transform="matrix(0.1340000033378601,0,0,0.1340000033378601,-1.9860000610351562,-1.6669998168945312)" opacity="1" style="display: block;"><g transform="matrix(0.699999988079071,0,0,0.699999988079071,28.084793090820312,25.228797912597656)" opacity="1" style="display: block;"><g opacity="1" transform="matrix(1,0,0,1,215.7949981689453,179.68600463867188)"><path fill="rgb(255,255,255)" fill-opacity="1" d=" M168.08399963378906,-11.005000114440918 C168.08399963378906,-11.005000114440918 168.08399963378906,-141.50999450683594 168.08399963378906,-141.50999450683594 C168.16200256347656,-142.12100219726562 168.1909942626953,-142.73800659179688 168.1739959716797,-143.35499572753906 C168.03399658203125,-152.85499572753906 164.197998046875,-161.927001953125 157.47900390625,-168.6439971923828 C150.76199340820312,-175.36300659179688 141.68899536132812,-179.19900512695312 132.18899536132812,-179.33999633789062 C132.18899536132812,-179.33999633789062 -178.43899536132812,-179.33999633789062 -178.43899536132812,-179.33999633789062 C-183.5260009765625,-179.43600463867188 -188.5780029296875,-178.4669952392578 -193.26800537109375,-176.49400329589844 C-197.95700073242188,-174.52000427246094 -202.1820068359375,-171.58700561523438 -205.6699981689453,-167.88299560546875 C-212.07899475097656,-160.74099731445312 -215.5449981689453,-151.43699645996094 -215.3719940185547,-141.84300231933594 C-215.3719940185547,-141.84300231933594 -215.3719940185547,94.34600067138672 -215.3719940185547,94.34600067138672 C-215.41099548339844,100.83000183105469 -213.73300170898438,107.20899963378906 -210.5050048828125,112.83300018310547 C-207.27699279785156,118.45600128173828 -202.61500549316406,123.12300109863281 -196.9969940185547,126.35800170898438 C-186.85499572753906,130.63900756835938 -175.7779998779297,132.2209930419922 -164.843994140625,130.94700622558594 C-164.843994140625,130.94700622558594 26.093000411987305,130.94700622558594 26.093000411987305,130.94700622558594 C26.948999404907227,132.26800537109375 27.886999130249023,133.64999389648438 28.834999084472656,134.92100524902344 C41.590999603271484,152.6199951171875 59.500999450683594,165.947998046875 80.11900329589844,173.08299255371094 C94.26799774169922,177.8300018310547 109.28299713134766,179.43699645996094 124.11699676513672,177.78799438476562 C138.9499969482422,176.13900756835938 153.24600219726562,171.27499389648438 166.00599670410156,163.53500366210938 C178.7689971923828,155.79600524902344 189.68899536132812,145.36700439453125 198.00799560546875,132.97500610351562 C206.3260040283203,120.58399963378906 211.84300231933594,106.5270004272461 214.1739959716797,91.78600311279297 C215.01100158691406,86.42500305175781 215.468994140625,81.01300048828125 215.5449981689453,75.58799743652344 C215.5449981689453,75.58799743652344 215.5449981689453,75.13500213623047 215.5449981689453,75.13500213623047 C215.4770050048828,53.82099914550781 208.75799560546875,33.0620002746582 196.32200622558594,15.751999855041504 C188.6020050048828,5.201000213623047 179.03599548339844,-3.864000082015991 168.08399963378906,-11.005000114440918z M10.894000053405762,61.78099822998047 C9.6850004196167,71.64800262451172 9.779000282287598,81.63099670410156 11.175000190734863,91.4729995727539 C11.175000190734863,91.89600372314453 11.317000389099121,92.33000183105469 11.368000030517578,92.75399780273438 C11.892000198364258,96.0719985961914 12.597999572753906,99.33899688720703 13.454999923706055,102.60700225830078 C13.454999923706055,102.60700225830078 -154.1739959716797,102.60700225830078 -154.1739959716797,102.60700225830078 C-162.50399780273438,102.60700225830078 -170.84500122070312,102.697998046875 -179.17599487304688,102.60700225830078 C-179.5850067138672,102.63099670410156 -179.99600219726562,102.63099670410156 -180.406005859375,102.60700225830078 C-180.406005859375,102.60700225830078 -178.22900390625,103.02999877929688 -178.22900390625,103.02999877929688 C-178.22900390625,103.02999877929688 -181.3040008544922,102.60700225830078 -181.3040008544922,102.60700225830078 C-181.02099609375,102.74800109863281 -180.68899536132812,102.88899993896484 -180.3560028076172,103.02999877929688 C-180.3560028076172,103.02999877929688 -181.36399841308594,102.60700225830078 -181.36399841308594,102.60700225830078 C-181.57200622558594,102.5999984741211 -181.7779998779297,102.56999969482422 -181.97900390625,102.51599884033203 C-181.97900390625,102.51599884033203 -181.4550018310547,102.51599884033203 -181.4550018310547,102.51599884033203 C-181.4550018310547,102.51599884033203 -183.10899353027344,101.81099700927734 -183.10899353027344,101.81099700927734 C-182.54400634765625,102.33499908447266 -183.11000061035156,102.00199890136719 -183.72500610351562,101.5790023803711 C-184.33999633789062,101.15499877929688 -185.28700256347656,100.34700012207031 -184.00599670410156,101.0530014038086 C-184.25100708007812,100.85600280761719 -184.4759979248047,100.63400268554688 -184.67300415039062,100.38800048828125 C-184.90499877929688,100.15699768066406 -185.1959991455078,99.86399841308594 -185.42799377441406,99.58200073242188 C-185.42799377441406,99.6719970703125 -185.28799438476562,99.81400299072266 -185.23800659179688,99.91400146484375 C-184.6219940185547,100.9229965209961 -185.32699584960938,100.1050033569336 -185.8520050048828,99.38899993896484 C-186.3260040283203,98.77400207519531 -186.65899658203125,98.3010025024414 -186.08399963378906,98.86499786376953 C-186.08399963378906,98.86499786376953 -186.7899932861328,97.16000366210938 -186.7899932861328,97.16000366210938 C-186.7899932861328,97.16000366210938 -186.7899932861328,97.68499755859375 -186.7899932861328,97.68499755859375 C-186.7899932861328,97.49400329589844 -186.7899932861328,97.26100158691406 -186.88099670410156,97.06900024414062 C-186.9720001220703,96.87799835205078 -187.16299438476562,96.36299896240234 -187.3040008544922,96.06099700927734 C-187.16299438476562,96.39299774169922 -187.02200317382812,96.6760025024414 -186.88099670410156,97.00900268554688 C-186.9720001220703,96.2020034790039 -187.072998046875,95.44499969482422 -187.21400451660156,94.63899993896484 C-187.1230010986328,95.16300201416016 -187.02200317382812,95.64800262451172 -186.88099670410156,96.2030029296875 C-187.02200317382812,93.83300018310547 -186.88099670410156,91.46299743652344 -186.88099670410156,89.19400024414062 C-186.88099670410156,89.19400024414062 -186.88099670410156,-114.69300079345703 -186.88099670410156,-114.69300079345703 C-186.88099670410156,-124.16200256347656 -186.9720001220703,-133.58200073242188 -186.88099670410156,-143.05299377441406 C-186.90499877929688,-143.47900390625 -186.90499877929688,-143.90699768066406 -186.88099670410156,-144.33299255371094 C-187.02200317382812,-143.6269989013672 -187.16299438476562,-142.91200256347656 -187.3040008544922,-142.156005859375 C-187.16299438476562,-143.1649932861328 -187.02200317382812,-144.1719970703125 -186.88099670410156,-145.2310028076172 C-187.02200317382812,-144.8979949951172 -187.16299438476562,-144.61599731445312 -187.3040008544922,-144.2830047607422 C-187.16299438476562,-144.61599731445312 -187.02200317382812,-144.98899841308594 -186.88099670410156,-145.29200744628906 C-186.87399291992188,-145.5 -186.84300231933594,-145.70599365234375 -186.7899932861328,-145.90699768066406 C-186.7899932861328,-145.90699768066406 -186.7899932861328,-145.3820037841797 -186.7899932861328,-145.3820037841797 C-186.55799865722656,-145.94700622558594 -186.3159942626953,-146.4720001220703 -186.08399963378906,-147.03599548339844 C-186.60800170898438,-146.4720001220703 -186.27499389648438,-147.03599548339844 -185.8520050048828,-147.65199279785156 C-185.42799377441406,-148.26699829101562 -184.62100219726562,-149.21499633789062 -185.32699584960938,-147.9340057373047 C-185.1300048828125,-148.1790008544922 -184.90699768066406,-148.40199279785156 -184.66200256347656,-148.60000610351562 C-184.42999267578125,-148.83200073242188 -184.13800048828125,-149.12399291992188 -183.85499572753906,-149.3560028076172 C-183.85499572753906,-149.3560028076172 -184.18800354003906,-149.16400146484375 -184.18800354003906,-149.16400146484375 C-185.1959991455078,-148.5489959716797 -184.3800048828125,-149.2550048828125 -183.66400146484375,-149.8300018310547 C-183.04800415039062,-150.25399780273438 -182.57400512695312,-150.58700561523438 -183.13900756835938,-150.02200317382812 C-183.13900756835938,-150.02200317382812 -181.43600463867188,-150.72900390625 -181.43600463867188,-150.72900390625 C-181.43600463867188,-150.72900390625 -181.95899963378906,-150.72900390625 -181.95899963378906,-150.72900390625 C-181.76800537109375,-150.72900390625 -181.53599548339844,-150.72799682617188 -181.343994140625,-150.8179931640625 C-181.343994140625,-150.8179931640625 -180.3350067138672,-151.24200439453125 -180.3350067138672,-151.24200439453125 C-180.3350067138672,-151.24200439453125 -181.2830047607422,-150.8179931640625 -181.2830047607422,-150.8179931640625 C-180.4759979248047,-150.90899658203125 -179.72000122070312,-151.00999450683594 -178.91299438476562,-151.1510009765625 C-178.91299438476562,-151.1510009765625 -180.42599487304688,-150.86900329589844 -180.42599487304688,-150.86900329589844 C-177.39999389648438,-151.06100463867188 -174.375,-150.86900329589844 -171.42999267578125,-150.86900329589844 C-171.42999267578125,-150.86900329589844 94.61299896240234,-150.86900329589844 94.61299896240234,-150.86900329589844 C94.61299896240234,-150.86900329589844 131.8260040283203,-150.86900329589844 131.8260040283203,-150.86900329589844 C132.28399658203125,-150.89300537109375 132.74200439453125,-150.89300537109375 133.19900512695312,-150.86900329589844 C133.19900512695312,-150.86900329589844 131.02000427246094,-151.29200744628906 131.02000427246094,-151.29200744628906 C131.02000427246094,-151.29200744628906 134.0970001220703,-150.86900329589844 134.0970001220703,-150.86900329589844 C134.0970001220703,-150.86900329589844 133.1479949951172,-151.29200744628906 133.1479949951172,-151.29200744628906 C133.1479949951172,-151.29200744628906 134.15699768066406,-150.86900329589844 134.15699768066406,-150.86900329589844 C134.36500549316406,-150.86199951171875 134.57200622558594,-150.83099365234375 134.7729949951172,-150.7779998779297 C134.7729949951172,-150.7779998779297 134.2469940185547,-150.7779998779297 134.2469940185547,-150.7779998779297 C134.81199645996094,-150.54600524902344 135.38800048828125,-150.3040008544922 135.90199279785156,-150.07200622558594 C135.33700561523438,-150.5970001220703 135.9010009765625,-150.26400756835938 136.51600646972656,-149.83999633789062 C137.13099670410156,-149.41700744628906 138.0800018310547,-148.61000061035156 136.7989959716797,-149.3159942626953 C137.04400634765625,-149.1179962158203 137.26600646972656,-148.89500427246094 137.46400451660156,-148.64999389648438 C137.6959991455078,-148.41799926757812 137.99000549316406,-148.12600708007812 138.2220001220703,-147.84300231933594 C138.2220001220703,-147.9340057373047 138.0800018310547,-148.0749969482422 138.0290069580078,-148.17599487304688 C137.41400146484375,-149.1840057373047 138.1199951171875,-148.3679962158203 138.6439971923828,-147.65199279785156 C139.1179962158203,-147.03599548339844 139.40199279785156,-146.56199645996094 138.8769989013672,-147.1269989013672 C139.10899353027344,-146.51199340820312 139.35000610351562,-145.947998046875 139.63299560546875,-145.33299255371094 C139.70399475097656,-145.17799377441406 139.77000427246094,-145.0189971923828 139.8249969482422,-144.85800170898438 C139.8249969482422,-144.85800170898438 139.96499633789062,-144.5760040283203 139.96499633789062,-144.5760040283203 C139.96499633789062,-144.5760040283203 139.8249969482422,-144.85800170898438 139.8249969482422,-144.85800170898438 C139.8249969482422,-144.85800170898438 139.8249969482422,-144.33299255371094 139.8249969482422,-144.33299255371094 C139.8249969482422,-143.85899353027344 139.96499633789062,-143.38499450683594 140.01600646972656,-142.86099243164062 C139.96099853515625,-143.2449951171875 139.88499450683594,-143.62600708007812 139.78500366210938,-144.00100708007812 C139.78500366210938,-144.00100708007812 139.78500366210938,-23.54199981689453 139.78500366210938,-23.54199981689453 C121.42500305175781,-28.506999969482422 102.05899810791016,-28.37299919128418 83.7699966430664,-23.158000946044922 C81.75299835205078,-22.54199981689453 79.73500061035156,-21.836000442504883 77.71800231933594,-21.06999969482422 C58.76900100708008,-13.965999603271484 42.24300003051758,-1.597000002861023 30.084999084472656,14.581999778747559 C19.67799949645996,28.371000289916992 13.062000274658203,44.641998291015625 10.894000053405762,61.78099822998047z M186.5709991455078,85.83499908447266 C185.57899475097656,92.04399871826172 183.9290008544922,98.12799835205078 181.6479949951172,103.98799896240234 C179.5290069580078,108.74500274658203 177.0260009765625,113.3219985961914 174.1649932861328,117.67400360107422 C173.45899963378906,118.76300048828125 172.69200134277344,119.8030014038086 171.89599609375,120.85199737548828 C172.03700256347656,120.70999908447266 172.17799377441406,120.51899719238281 172.3699951171875,120.3270034790039 C172.3699951171875,120.3270034790039 171.80499267578125,121.03299713134766 171.80499267578125,121.03299713134766 C171.80499267578125,121.03299713134766 171.71499633789062,121.17400360107422 171.6649932861328,121.2249984741211 C171.33200073242188,121.6989974975586 170.656005859375,122.45500183105469 170.656005859375,122.45500183105469 C168.98699951171875,124.4540023803711 167.2169952392578,126.36599731445312 165.3509979248047,128.1840057373047 C163.4550018310547,130.0800018310547 161.4669952392578,131.87399291992188 159.42999267578125,133.62899780273438 C159.42999267578125,133.62899780273438 159.00599670410156,134.05299377441406 159.00599670410156,134.05299377441406 C159.00599670410156,134.05299377441406 158.39100646972656,134.4770050048828 158.39100646972656,134.4770050048828 C157.21099853515625,135.33399963378906 156.02200317382812,136.18099975585938 154.8419952392578,136.98800659179688 C150.59300231933594,139.8249969482422 146.10699462890625,142.2949981689453 141.43800354003906,144.37100219726562 C129.0780029296875,149.5570068359375 115.5469970703125,151.29800415039062 102.2770004272461,149.41299438476562 C96.08999633789062,148.4149932861328 90.02300262451172,146.76499938964844 84.18299865722656,144.49200439453125 C79.62000274658203,142.51600646972656 75.23300170898438,140.1529998779297 71.0719985961914,137.43099975585938 C69.93299865722656,136.6750030517578 68.84300231933594,135.91900634765625 67.71299743652344,135.11300659179688 C67.14900207519531,134.72900390625 66.625,134.30599975585938 66.10099792480469,133.8820037841797 C66.10099792480469,133.8820037841797 66.57499694824219,134.21499633789062 66.57499694824219,134.21499633789062 C64.48799896240234,132.4600067138672 62.459999084472656,130.71499633789062 60.52399826049805,128.81900024414062 C58.58700180053711,126.9229965209961 56.73099899291992,124.93599700927734 54.986000061035156,122.8489990234375 C54.986000061035156,122.8489990234375 53.84700012207031,121.4260025024414 53.84700012207031,121.4260025024414 C53.18199920654297,120.52899932861328 52.5260009765625,119.63099670410156 51.9109992980957,118.7239990234375 C48.78799819946289,114.20899963378906 46.108001708984375,109.40399932861328 43.9119987487793,104.37200164794922 C38.78499984741211,92.08200073242188 37.042999267578125,78.64299774169922 38.86899948120117,65.4520034790039 C39.85100173950195,59.180999755859375 41.51900100708008,53.03499984741211 43.84199905395508,47.12699890136719 C45.96200180053711,42.369998931884766 48.4640007019043,37.792999267578125 51.32600021362305,33.441001892089844 C52.03200149536133,32.35200119018555 52.797000885009766,31.312999725341797 53.59400177001953,30.263999938964844 C53.452999114990234,30.4060001373291 53.3120002746582,30.597000122070312 53.119998931884766,30.788999557495117 C53.119998931884766,30.788999557495117 53.68600082397461,30.08300018310547 53.68600082397461,30.08300018310547 C53.68600082397461,30.08300018310547 53.7760009765625,29.941999435424805 53.82600021362305,29.891000747680664 C54.159000396728516,29.41699981689453 54.834999084472656,28.660999298095703 54.834999084472656,28.660999298095703 C56.50400161743164,26.66200065612793 58.27399826049805,24.75 60.13999938964844,22.93199920654297 C62.03499984741211,21.03700065612793 64.02300262451172,19.242000579833984 66.05899810791016,17.48699951171875 C66.05899810791016,17.48699951171875 66.48500061035156,17.062000274658203 66.48500061035156,17.062000274658203 C66.2490005493164,17.202999114990234 66.15399932861328,17.250999450683594 66.20099639892578,17.20400047302246 C66.20099639892578,17.20400047302246 66.29100036621094,17.11400032043457 66.29100036621094,17.11400032043457 C65.48500061035156,17.63800048828125 66.95899963378906,16.30699920654297 67.61399841308594,15.973999977111816 C67.2229995727539,16.222999572753906 66.85700225830078,16.509000778198242 66.52400207519531,16.83099937438965 C66.90699768066406,16.507999420166016 67.31999969482422,16.222000122070312 67.75499725341797,15.973999977111816 C67.75499725341797,15.973999977111816 67.8949966430664,15.973999977111816 67.8949966430664,15.973999977111816 C68.75199890136719,15.359000205993652 69.60099792480469,14.743000030517578 70.49800109863281,14.178999900817871 C74.4469985961914,11.555999755859375 78.59400177001953,9.246000289916992 82.90299987792969,7.269999980926514 C82.62100219726562,7.361000061035156 82.33699798583984,7.501999855041504 82.04499816894531,7.603000164031982 C82.04499816894531,7.603000164031982 83.05400085449219,7.178999900817871 83.05400085449219,7.178999900817871 C83.33699798583984,7.038000106811523 83.61900329589844,6.947999954223633 83.91200256347656,6.796000003814697 C83.91200256347656,6.796000003814697 84.86000061035156,6.413000106811523 84.86000061035156,6.413000106811523 C85.05699920654297,6.315000057220459 85.26200103759766,6.236999988555908 85.4749984741211,6.181000232696533 C85.4749984741211,6.181000232696533 85.0009994506836,6.373000144958496 85.0009994506836,6.373000144958496 C90.5510025024414,4.281000137329102 96.29299926757812,2.74399995803833 102.1449966430664,1.784000039100647 C102.1449966430664,1.784000039100647 101.41999816894531,1.8700000047683716 101.41999816894531,1.8700000047683716 C101.55400085449219,1.8559999465942383 101.68900299072266,1.8559999465942383 101.8219985961914,1.8339999914169312 C101.53500366210938,1.840999960899353 101.24700164794922,1.871000051498413 100.96499633789062,1.9240000247955322 C100.96499633789062,1.9240000247955322 101.41999816894531,1.8700000047683716 101.41999816894531,1.8700000047683716 C101.21800231933594,1.8919999599456787 101.01699829101562,1.9199999570846558 100.81400299072266,1.9240000247955322 C102.09400177001953,1.7319999933242798 103.32499694824219,1.5920000076293945 104.60600280761719,1.399999976158142 C104.08100128173828,1.4910000562667847 103.5979995727539,1.5420000553131104 102.99299621582031,1.6319999694824219 C103.55699920654297,1.5420000553131104 104.13300323486328,1.4910000562667847 104.74800109863281,1.399999976158142 C104.74800109863281,1.399999976158142 102.85099792480469,1.6829999685287476 102.85099792480469,1.6829999685287476 C104.93599700927734,1.4470000267028809 107.02100372314453,1.3070000410079956 109.1050033569336,1.2589999437332153 C109.37300109863281,1.284000039100647 109.64299774169922,1.284000039100647 109.91200256347656,1.2589999437332153 C109.91200256347656,1.2589999437332153 111.28199768066406,1.2589999437332153 111.28199768066406,1.2589999437332153 C111.28199768066406,1.2589999437332153 114.12699890136719,1.2589999437332153 114.12699890136719,1.2589999437332153 C114.12699890136719,1.2589999437332153 115.54900360107422,1.2589999437332153 115.54900360107422,1.2589999437332153 C115.81700134277344,1.2350000143051147 116.08799743652344,1.2350000143051147 116.35600280761719,1.2589999437332153 C116.35600280761719,1.2589999437332153 117.44599914550781,1.2589999437332153 117.44599914550781,1.2589999437332153 C119.20099639892578,1.350000023841858 120.94400024414062,1.4910000562667847 122.64900207519531,1.6829999685287476 C122.64900207519531,1.6829999685287476 121.64099884033203,1.5420000553131104 121.64099884033203,1.5420000553131104 C121.88600158691406,1.5880000591278076 122.13600158691406,1.6089999675750732 122.38600158691406,1.6200000047683716 C121.85800170898438,1.5499999523162842 121.33200073242188,1.4809999465942383 120.79399871826172,1.399999976158142 C121.35900115966797,1.440999984741211 121.93399810791016,1.5420000553131104 122.49800109863281,1.6319999694824219 C122.46099853515625,1.6319999694824219 122.4229965209961,1.621999979019165 122.38600158691406,1.6200000047683716 C123.11499786376953,1.718000054359436 123.84200286865234,1.812999963760376 124.58499908447266,1.9240000247955322 C124.43800354003906,1.8990000486373901 124.28900146484375,1.8969999551773071 124.13999938964844,1.8819999694824219 C124.13999938964844,1.8819999694824219 124.44499969482422,1.9240000247955322 124.44499969482422,1.9240000247955322 C124.18599700927734,1.840000033378601 123.95700073242188,1.840999960899353 123.7040023803711,1.840000033378601 C129.36000061035156,2.7950000762939453 134.91600036621094,4.27400016784668 140.28900146484375,6.2820000648498535 C140.6719970703125,6.422999858856201 140.9949951171875,6.513999938964844 141.29800415039062,6.664999961853027 C141.29800415039062,6.664999961853027 142.30499267578125,7.089000225067139 142.30499267578125,7.089000225067139 C144.1510009765625,7.946000099182129 145.9969940185547,8.843000411987305 147.80299377441406,9.831000328063965 C150.50599670410156,11.303999900817871 153.10699462890625,12.857999801635742 155.6179962158203,14.571999549865723 C156.5659942626953,15.187000274658203 157.41299438476562,15.852999687194824 158.3209991455078,16.468000411987305 C158.7949981689453,16.85099983215332 159.2689971923828,17.224000930786133 159.7429962158203,17.648000717163086 C161.92100524902344,19.44300079345703 163.95899963378906,21.389999389648438 165.9459991455078,23.375999450683594 C167.9320068359375,25.363000869750977 169.63699340820312,27.309999465942383 171.3419952392578,29.42799949645996 C171.4320068359375,29.51799964904785 171.62399291992188,29.760000228881836 171.8159942626953,29.992000579833984 C171.88699340820312,30.107999801635742 171.96299743652344,30.219999313354492 172.04800415039062,30.325000762939453 C172.85499572753906,31.413999557495117 173.61099243164062,32.55400085449219 174.36700439453125,33.643001556396484 C177.11900329589844,37.8120002746582 179.52499389648438,42.196998596191406 181.56700134277344,46.75400161743164 C183.83399963378906,52.518001556396484 185.50100708007812,58.5 186.5399932861328,64.6050033569336 C186.91700744628906,68.24099731445312 187.10699462890625,71.89299774169922 187.10499572753906,75.5479965209961 C187.13499450683594,78.97699737548828 186.8939971923828,82.38600158691406 186.5709991455078,85.83499908447266z"/></g><g opacity="1" transform="matrix(1,0,0,1,339.5830078125,181.5189971923828)"><path fill="rgb(255,255,255)" fill-opacity="1" d=" M-0.09200000017881393,0.007000000216066837 C0.05700000002980232,0.010999999940395355 0.20399999618530273,0.03400000184774399 0.35199999809265137,0.04899999871850014 C0.35199999809265137,0.04899999871850014 -0.35199999809265137,-0.04899999871850014 -0.35199999809265137,-0.04899999871850014 C-0.2639999985694885,-0.03400000184774399 -0.17900000512599945,-0.00800000037997961 -0.09200000017881393,0.007000000216066837z"/></g><g opacity="1" transform="matrix(1,0,0,1,339.4670104980469,181.5240020751953)"><path fill="rgb(255,255,255)" fill-opacity="1" d=" M-0.03400000184774399,-0.003000000026077032 C-0.010999999940395355,-0.003000000026077032 0.009999999776482582,0.004000000189989805 0.032999999821186066,0.004000000189989805 C0.029999999329447746,0.004000000189989805 0.027000000700354576,0.003000000026077032 0.024000000208616257,0.003000000026077032 C0.004999999888241291,0.0020000000949949026 -0.014999999664723873,-0.0020000000949949026 -0.03400000184774399,-0.003000000026077032z"/></g><g opacity="1" transform="matrix(1,0,0,1,317.19000244140625,181.56500244140625)"><path fill="rgb(255,255,255)" fill-opacity="1" d=" M0.42899999022483826,-0.04500000178813934 C0.29600000381469727,-0.023000000044703484 0.16099999845027924,-0.023000000044703484 0.027000000700354576,-0.008999999612569809 C0.027000000700354576,-0.008999999612569809 -0.42800000309944153,0.04500000178813934 -0.42800000309944153,0.04500000178813934 C-0.1459999978542328,-0.007000000216066837 0.1420000046491623,-0.03799999877810478 0.42899999022483826,-0.04500000178813934z"/></g><g opacity="1" transform="matrix(1,0,0,1,337.4410095214844,181.20199584960938)"><path fill="rgb(255,255,255)" fill-opacity="1" d=" M-0.8519999980926514,-0.11599999666213989 C-0.3140000104904175,-0.03500000014901161 0.21400000154972076,0.03400000184774399 0.7409999966621399,0.10400000214576721 C0.7789999842643738,0.10599999874830246 0.8149999976158142,0.11500000208616257 0.8519999980926514,0.11599999666213989 C0.2879999876022339,0.026000000536441803 -0.28700000047683716,-0.07500000298023224 -0.8519999980926514,-0.11599999666213989z"/></g><g opacity="1" transform="matrix(1,0,0,1,339.864990234375,181.5679931640625)"><path fill="rgb(255,255,255)" fill-opacity="1" d=" M-0.36500000953674316,-0.04100000113248825 C-0.1120000034570694,-0.03999999910593033 0.11599999666213989,-0.04100000113248825 0.37400001287460327,0.041999999433755875 C0.37400001287460327,0.041999999433755875 0.07000000029802322,0 0.07000000029802322,0 C-0.07800000160932541,-0.01600000075995922 -0.22499999403953552,-0.039000000804662704 -0.37400001287460327,-0.0430000014603138 C-0.3709999918937683,-0.041999999433755875 -0.36800000071525574,-0.041999999433755875 -0.36500000953674316,-0.04100000113248825z"/></g></g><g transform="matrix(0.699999988079071,0,0,0.699999988079071,60.62501525878906,63.54330062866211)" opacity="1" style="display: block;"><g opacity="1" transform="matrix(1,0,0,1,145.5399932861328,55.55099868774414)"><path fill="rgb(255,255,255)" fill-opacity="1" d=" M138.0679931640625,-25.59600067138672 C138.0679931640625,-25.59600067138672 138.05799865722656,-25.59600067138672 138.05799865722656,-25.59600067138672 C141.21600341796875,-27.538999557495117 143.48800659179688,-30.641000747680664 144.38900756835938,-34.23699951171875 C145.2899932861328,-37.83300018310547 144.74899291992188,-41.638999938964844 142.88299560546875,-44.84199905395508 C141.01499938964844,-48.04499816894531 137.968994140625,-50.38999938964844 134.39500427246094,-51.37799835205078 C130.82200622558594,-52.36399841308594 127.00299835205078,-51.91400146484375 123.75700378417969,-50.124000549316406 C123.75700378417969,-50.124000549316406 79.25,-23.277000427246094 79.25,-23.277000427246094 C55.8120002746582,-9.149999618530273 32.37300109863281,4.993000030517578 8.9350004196167,19.152000427246094 C6,20.906999588012695 3.1050000190734863,22.652000427246094 0.22100000083446503,24.406999588012695 C-12.184000015258789,16.673999786376953 -24.589000701904297,8.925999641418457 -36.99399948120117,1.159999966621399 C-60.465999603271484,-13.517000198364258 -83.96900177001953,-28.19499969482422 -107.5009994506836,-42.87200164794922 C-112.85600280761719,-46.28099822998047 -118.20099639892578,-49.5989990234375 -123.55699920654297,-52.95800018310547 C-126.80599975585938,-54.805999755859375 -130.6529998779297,-55.30099868774414 -134.26400756835938,-54.33399963378906 C-137.875,-53.367000579833984 -140.96099853515625,-51.018001556396484 -142.8520050048828,-47.79399871826172 C-144.74400329589844,-44.569000244140625 -145.2899932861328,-40.72999954223633 -144.3730010986328,-37.10599899291992 C-143.4550018310547,-33.481998443603516 -141.14700317382812,-30.364999771118164 -137.94900512695312,-28.43000030517578 C-137.94900512695312,-28.43000030517578 -93.67400360107422,-0.7770000100135803 -93.67400360107422,-0.7770000100135803 C-70.2020034790039,13.902000427246094 -46.69900131225586,28.57900047302246 -23.16699981689453,43.25699996948242 C-17.812000274658203,46.66600036621094 -12.467000007629395,49.983001708984375 -7.111000061035156,53.34199905395508 C-4.938000202178955,54.625 -2.4590001106262207,55.30099868774414 0.06499999761581421,55.30099868774414 C2.5889999866485596,55.30099868774414 5.066999912261963,54.625 7.241000175476074,53.34199905395508 C7.241000175476074,53.34199905395508 51.74700164794922,26.4950008392334 51.74700164794922,26.4950008392334 C75.18599700927734,12.368000030517578 98.6240005493164,-1.774999976158142 122.06300354003906,-15.9350004196167 C122.06300354003906,-15.9350004196167 138.0679931640625,-25.59600067138672 138.0679931640625,-25.59600067138672z"/></g></g><g transform="matrix(0,0.6999990344047546,-0.6999990344047546,0,291.5805358886719,170.81214904785156)" opacity="1" style="display: block;"><g opacity="1" transform="matrix(1,0,0,1,47.176998138427734,47.9379997253418)"><path fill="rgb(255,255,255)" fill-opacity="1" d=" M33.09600067138672,-14.16100025177002 C33.09600067138672,-14.16100025177002 14.215999603271484,-14.16100025177002 14.215999603271484,-14.16100025177002 C14.215999603271484,-14.16100025177002 14.215999603271484,-33.099998474121094 14.215999603271484,-33.099998474121094 C14.267000198364258,-34.99700164794922 13.937000274658203,-36.88600158691406 13.246000289916992,-38.65399932861328 C12.553999900817871,-40.422000885009766 11.515000343322754,-42.03200149536133 10.190999984741211,-43.393001556396484 C8.866999626159668,-44.75299835205078 7.2829999923706055,-45.83399963378906 5.535999774932861,-46.571998596191406 C3.7869999408721924,-47.310001373291016 1.9079999923706055,-47.68899917602539 0.009999999776482582,-47.68899917602539 C-1.8880000114440918,-47.68899917602539 -3.7669999599456787,-47.310001373291016 -5.515999794006348,-46.571998596191406 C-7.263999938964844,-45.83399963378906 -8.847000122070312,-44.75299835205078 -10.170999526977539,-43.393001556396484 C-11.496000289916992,-42.03200149536133 -12.532999992370605,-40.422000885009766 -13.223999977111816,-38.65399932861328 C-13.914999961853027,-36.88600158691406 -14.244999885559082,-34.99700164794922 -14.194999694824219,-33.099998474121094 C-14.194999694824219,-33.099998474121094 -14.194999694824219,-14.16100025177002 -14.194999694824219,-14.16100025177002 C-14.194999694824219,-14.16100025177002 -33.09400177001953,-14.16100025177002 -33.09400177001953,-14.16100025177002 C-36.797000885009766,-14.062000274658203 -40.31399917602539,-12.520999908447266 -42.89799880981445,-9.868000030517578 C-45.47999954223633,-7.215000152587891 -46.926998138427734,-3.6579999923706055 -46.926998138427734,0.04500000178813934 C-46.926998138427734,3.749000072479248 -45.47999954223633,7.306000232696533 -42.89799880981445,9.960000038146973 C-40.31399917602539,12.612000465393066 -36.797000885009766,14.152000427246094 -33.09400177001953,14.25100040435791 C-33.09400177001953,14.25100040435791 -14.204000473022461,14.25100040435791 -14.204000473022461,14.25100040435791 C-14.204000473022461,14.25100040435791 -14.204000473022461,33.099998474121094 -14.204000473022461,33.099998474121094 C-14.255000114440918,34.99800109863281 -13.925000190734863,36.88600158691406 -13.234000205993652,38.65299987792969 C-12.541999816894531,40.42100143432617 -11.505000114440918,42.03300094604492 -10.180999755859375,43.393001556396484 C-8.855999946594238,44.75199890136719 -7.2729997634887695,45.83300018310547 -5.525000095367432,46.57099914550781 C-3.7760000228881836,47.308998107910156 -1.8969999551773071,47.68899917602539 0.0010000000474974513,47.68899917602539 C1.8990000486373901,47.68899917602539 3.7780001163482666,47.308998107910156 5.5269999504089355,46.57099914550781 C7.27400016784668,45.83300018310547 8.857999801635742,44.75199890136719 10.182000160217285,43.393001556396484 C11.505999565124512,42.03300094604492 12.543999671936035,40.42100143432617 13.236000061035156,38.65299987792969 C13.927000045776367,36.88600158691406 14.256999969482422,34.99800109863281 14.206000328063965,33.099998474121094 C14.206000328063965,33.099998474121094 14.206000328063965,14.25100040435791 14.206000328063965,14.25100040435791 C14.206000328063965,14.25100040435791 33.09600067138672,14.25100040435791 33.09600067138672,14.25100040435791 C36.79800033569336,14.152000427246094 40.31399917602539,12.612000465393066 42.89799880981445,9.960000038146973 C45.48099899291992,7.306000232696533 46.926998138427734,3.749000072479248 46.926998138427734,0.04500000178813934 C46.926998138427734,-3.6579999923706055 45.48099899291992,-7.215000152587891 42.89799880981445,-9.868000030517578 C40.31399917602539,-12.520999908447266 36.79800033569336,-14.062000274658203 33.09600067138672,-14.16100025177002z"/></g></g></g></g></svg>