<svg class="c-footer__socialMediaIcon -instagram anim-hoverFade" xmlns="http://www.w3.org/2000/svg" viewBox="0 0 34 34">
<circle fill="#363636" cx="17" cy="17" r="17"/>
<path fill="#fff" d="M16.7,9.57c2.32,0,2.6,0,3.52,0a4.89,4.89,0,0,1,1.61.3,2.9,2.9,0,0,1,1.66,1.65,5,5,0,0,1,.3,1.62c0,.92.05,1.19.05,3.52s0,2.6-.05,3.51a5,5,0,0,1-.3,1.62,2.9,2.9,0,0,1-1.66,1.65,4.89,4.89,0,0,1-1.61.3c-.92,0-1.19.05-3.52.05s-2.6,0-3.52-.05a4.89,4.89,0,0,1-1.61-.3,2.9,2.9,0,0,1-1.66-1.65,5,5,0,0,1-.3-1.62c0-.92,0-1.19,0-3.52s0-2.6,0-3.51a5,5,0,0,1,.3-1.62,2.9,2.9,0,0,1,1.66-1.65,4.89,4.89,0,0,1,1.61-.3c.92,0,1.2,0,3.52,0M16.7,8c-2.36,0-2.66,0-3.59.05a6.32,6.32,0,0,0-2.11.4A4.45,4.45,0,0,0,8.45,11a6.58,6.58,0,0,0-.4,2.11C8,14,8,14.34,8,16.7s0,2.66.05,3.59a6.63,6.63,0,0,0,.4,2.11A4.45,4.45,0,0,0,11,25a6.12,6.12,0,0,0,2.11.4c.93,0,1.23.06,3.59.06s2.66,0,3.59-.06A6.08,6.08,0,0,0,22.4,25,4.43,4.43,0,0,0,25,22.41a6.38,6.38,0,0,0,.4-2.12c0-.92,0-1.22,0-3.58s0-2.67,0-3.59A6.42,6.42,0,0,0,25,11,4.43,4.43,0,0,0,22.4,8.46a6.32,6.32,0,0,0-2.11-.4C19.36,8,19.07,8,16.7,8Z"/>
<path fill="#fff" d="M16.71,12.21a4.5,4.5,0,1,0,4.5,4.5,4.49,4.49,0,0,0-4.5-4.5Zm0,7.41a2.92,2.92,0,1,1,2.91-2.92h0A2.91,2.91,0,0,1,16.71,19.62Z"/>
<circle fill="#fff" cx="21.21" cy="12.2" r="1.28"/>
</svg>