<svg class="c-header__searchIcon anim-hoverFade" xmlns="http://www.w3.org/2000/svg" viewBox="0 0 16 16" style="transform: translate(0px, 0px); opacity: 1;">
<path d="M16,14.74l-4.3-4.3A6.26,6.26,0,0,0,12.5,9,6.52,6.52,0,0,0,12.5,4a6.4,6.4,0,0,0-1.39-2.06A6.57,6.57,0,0,0,9.05.5,6.72,6.72,0,0,0,6.51,0,6.34,6.34,0,0,0,4,.52a6.28,6.28,0,0,0-2.06,1.4A6.4,6.4,0,0,0,.52,4a6.52,6.52,0,0,0,0,5.09,6.25,6.25,0,0,0,1.39,2.06,6.47,6.47,0,0,0,7.14,1.4,6.61,6.61,0,0,0,1.39-.8L14.72,16ZM6.51,11.58a5.07,5.07,0,1,1,5.06-5.07h0A5.06,5.06,0,0,1,6.51,11.58Z"/>
</svg>