<svg xmlns="http://www.w3.org/2000/svg" width="80" height="20.91" viewBox="0 0 80 20.91"><g transform="translate(-338.723 -375.704)"><g transform="translate(338.723 378.62)"><g transform="translate(0 0)"><path d="M351.918,401.65a7.711,7.711,0,0,1-2.523,2.011,7.175,7.175,0,0,1-3.268.746,7.513,7.513,0,0,1-5.249-2.1,7.168,7.168,0,0,1-1.578-2.28,7.164,7.164,0,0,1,0-5.635,7.224,7.224,0,0,1,3.931-3.824,7.554,7.554,0,0,1,2.9-.555,7.175,7.175,0,0,1,3.268.746,7.567,7.567,0,0,1,2.471,1.942l-1.855,1.907a4.877,4.877,0,0,0-1.656-1.482,4.681,4.681,0,0,0-4.057-.191,4.889,4.889,0,0,0-1.5,1.006,4.754,4.754,0,0,0-1.014,1.474,4.377,4.377,0,0,0-.373,1.795,4.332,4.332,0,0,0,.373,1.777,4.752,4.752,0,0,0,1.014,1.474,4.874,4.874,0,0,0,1.5,1.006,4.537,4.537,0,0,0,1.829.373,4.395,4.395,0,0,0,2.271-.581,5.152,5.152,0,0,0,1.647-1.534Z" transform="translate(-338.723 -389.88)" fill="#d60812"/><path d="M411.791,418.353h-2.5v-.538a4.131,4.131,0,0,1-1.4.624,6.606,6.606,0,0,1-1.517.173,3.8,3.8,0,0,1-1.318-.217,2.969,2.969,0,0,1-1.023-.624,2.8,2.8,0,0,1-.668-.962,3.138,3.138,0,0,1-.234-1.231,2.866,2.866,0,0,1,.373-1.483,3.214,3.214,0,0,1,1.014-1.057,4.688,4.688,0,0,1,1.5-.633,7.818,7.818,0,0,1,1.847-.208h1.439a1.8,1.8,0,0,0-.572-1.4,2.367,2.367,0,0,0-1.647-.52,3.3,3.3,0,0,0-1.075.191,3.261,3.261,0,0,0-1.11.693l-1.392-1.568a5.116,5.116,0,0,1,1.764-1.1,5.807,5.807,0,0,1,2.159-.416,4.9,4.9,0,0,1,1.852.329,3.8,3.8,0,0,1,2.233,2.324,6.813,6.813,0,0,1,.267,2.081Zm-2.5-2.5V414H408.15a6.585,6.585,0,0,0-.98.07,2.752,2.752,0,0,0-.8.234,1.477,1.477,0,0,0-.537.425,1,1,0,0,0-.2.624,1.043,1.043,0,0,0,.407.85,1.615,1.615,0,0,0,1.049.33,3.623,3.623,0,0,0,1.1-.173A5.3,5.3,0,0,0,409.294,415.856Z" transform="translate(-389.406 -404.086)" fill="#d60812"/><path d="M467.594,418.353h-2.5v-5.982a2.266,2.266,0,0,0-.511-1.6,1.655,1.655,0,0,0-1.257-.546,3.086,3.086,0,0,0-1.06.193,3.23,3.23,0,0,0-1.021.587,5.513,5.513,0,0,1,.156,1.37v5.982h-2.5v-5.982a2.266,2.266,0,0,0-.511-1.6,1.636,1.636,0,0,0-1.24-.546,2.386,2.386,0,0,0-1.006.2,3.545,3.545,0,0,0-.9.633v7.3h-2.5V408.331h2.5l0,.746a3.732,3.732,0,0,1,1.1-.728,3.2,3.2,0,0,1,1.294-.277,3.582,3.582,0,0,1,1.467.329,3.783,3.783,0,0,1,1.293.954,4.668,4.668,0,0,1,3.333-1.283,4.671,4.671,0,0,1,1.484.234,3.139,3.139,0,0,1,1.224.746,3.712,3.712,0,0,1,.833,1.3,5.161,5.161,0,0,1,.313,1.9Z" transform="translate(-428.441 -404.086)" fill="#d60812"/><path d="M540.31,413.325c0,.28-.055,1.04-.055,1.04h-8.043a3.444,3.444,0,0,0,.39.824,2.737,2.737,0,0,0,.615.676,2.908,2.908,0,0,0,.823.451,2.979,2.979,0,0,0,1.015.165,4.113,4.113,0,0,0,1.352-.234,3.319,3.319,0,0,0,1.127-.633l1.5,1.638a6.4,6.4,0,0,1-1.957,1.041,6.838,6.838,0,0,1-2.107.321,5.392,5.392,0,0,1-3.806-1.543,5.258,5.258,0,0,1-1.136-1.673,5.281,5.281,0,0,1,0-4.109,5.192,5.192,0,0,1,1.144-1.673,5.521,5.521,0,0,1,1.7-1.127,5.227,5.227,0,0,1,2.081-.416,5.4,5.4,0,0,1,2.029.39,5.531,5.531,0,0,1,1.717,1.084,5.072,5.072,0,0,1,1.613,3.78Zm-2.619-.971a3,3,0,0,0-1.049-1.535,2.728,2.728,0,0,0-1.708-.581,2.667,2.667,0,0,0-1.682.581,3.024,3.024,0,0,0-1.04,1.535Z" transform="translate(-488.916 -404.086)" fill="#d60812"/><path d="M591.427,403.586a4.269,4.269,0,0,1-.751.235,3.412,3.412,0,0,1-.772.087,3.837,3.837,0,0,1-1.066-.147,2.334,2.334,0,0,1-.893-.477,2.3,2.3,0,0,1-.607-.858,3.241,3.241,0,0,1-.225-1.274v-11.77h2.549v11.336a1.152,1.152,0,0,0,.252.858.847.847,0,0,0,.6.234,1.787,1.787,0,0,0,.915-.27Z" transform="translate(-534.159 -389.381)" fill="#d60812"/></g></g><path d="M644.142,376.642a1.891,1.891,0,0,0-.838-.455c-.323-.066-.521.142-.85.1-.237-.031-.688-.129-.919-.189a8.07,8.07,0,0,1-.944-.312,1.888,1.888,0,0,0-1.14.016.646.646,0,0,1-.138.032.615.615,0,0,1-.125-.01,3.2,3.2,0,0,0-.756-.027c-.087.008-.188.031-.221.11a.211.211,0,0,0,.008.149.8.8,0,0,0,.275.369c.084.066.111.045.115.141a.484.484,0,0,1-.058.184,2.21,2.21,0,0,0,.032,1.214c.354,1.637.969,3.212,1.3,4.854.085.418.145.877-.237,1.17a1.056,1.056,0,0,1-1.115-.02,10.208,10.208,0,0,1-2.664-2.693,10.848,10.848,0,0,0-1.553-1.807,1.692,1.692,0,0,0-1.9.067,4.814,4.814,0,0,0-1.015.982l-1.624,1.913a16.464,16.464,0,0,0-1.562,1.861,2.3,2.3,0,0,0-.307.872,1.509,1.509,0,0,1-.971.18.077.077,0,0,0-.1.072c0,.235.123.852,1.039.712a7.862,7.862,0,0,1,.019,2.014,4.867,4.867,0,0,1-1.8,2.505c-.263.352-.032.876-.686,2.231a33.932,33.932,0,0,0-1.349,3.377c-.112.36-.138.37.434.361l.224,0a3.148,3.148,0,0,0,.4-.007.244.244,0,0,0,.09-.026c.078-.046.073-.156.073-.233a3.021,3.021,0,0,0-.039-.345,1.579,1.579,0,0,1,0-.366,6.9,6.9,0,0,1,1.5-3.417c1.921-2.533,3.014-3.2,3.948-3.366a6.222,6.222,0,0,1,.851-.078l-.352.7a3.264,3.264,0,0,1-.994,1.376c-.3.212-.036.5.117.7.221.3.438.6.66.9.488.656.974,1.315,1.417,2,.457.709.826,1.333,1.22,2.076a.166.166,0,0,0,.151.088c.161,0,.568.006.925,0,.374-.01.048-.34.048-.34-.348-.407-.637-.745-.959-1.173-.492-.672-.963-1.375-1.395-2.078a3.961,3.961,0,0,1-.693-1.454,3.542,3.542,0,0,1,.812-2.1c.019-.03.338-.527.433-.694l.207,0c1.245,0,2.489.037,3.734.06a1.261,1.261,0,0,1,.265.368,9.5,9.5,0,0,1,.545,1.467l.186.551-.535.015a3.733,3.733,0,0,1-.844-.042.825.825,0,0,0-.264-.03c-.19.025-.224.223-.283.369-.065.163-.18.437-.241.6-.106.286.51.109.621.083a7.5,7.5,0,0,1,1.231-.212c.262-.019.431-.028.568-.034l.876,2.592a5.757,5.757,0,0,1,.3,1.639c.009.318-.06.386.3.4q.446.012.891-.017a.221.221,0,0,0,.1-.021c.2-.116-.155-.539-.224-.648a5.4,5.4,0,0,1-.641-1.537l-.6-2.45c.221-.013.443-.023.664-.038a14,14,0,0,0,1.451-.165c.56-.1,1.284-.419,1.129-.947a11.25,11.25,0,0,0-2.311-2.091c.077-.026.153-.051.227-.085a3.892,3.892,0,0,0,2-3.2q.024-.222.031-.445a9.705,9.705,0,0,0-.382-2.678l-.746-2.922a.892.892,0,0,1,.05-.745,2.878,2.878,0,0,1,.665-.563.641.641,0,0,1,.554-.138c.164.045.241.19.341.309a.911.911,0,0,0,.445.267.409.409,0,0,0,.29.01c.248-.117.026-.375,0-.533-.024-.123.192-.046.253-.038a.838.838,0,0,0,.853-.324C644.833,377.195,644.424,376.872,644.142,376.642Zm-3.285,13.835c.116.094.485.351.18.448a3.447,3.447,0,0,1-.627.129c-.489.061-.98.1-1.472.125l-.568-2.313q.2,0,.4,0c.1.069.2.142.3.218.3.235.525.4.818.639S640.547,390.224,640.857,390.477Zm-.208-13.547-.194.2a.1.1,0,0,1-.135,0l-.2-.191a.093.093,0,0,1,0-.132l.195-.2a.1.1,0,0,1,.135,0l.2.191A.093.093,0,0,1,640.649,376.93Z" transform="translate(-225.96)" fill="#d60812"/></g></svg>